<svg xmlns="http://www.w3.org/2000/svg" viewBox="0 0 577 433" role="img" aria-label="Lavender cloud card">
  <defs>
    <filter id="shadow" x="-20%" y="-20%" width="140%" height="150%">
      <feDropShadow dx="0" dy="8" stdDeviation="10" flood-color="#5f5374" flood-opacity="0.18"/>
      <feDropShadow dx="0" dy="2" stdDeviation="2" flood-color="#ffffff" flood-opacity="0.75"/>
    </filter>
    <linearGradient id="fill" x1="90" y1="90" x2="480" y2="330" gradientUnits="userSpaceOnUse">
      <stop offset="0" stop-color="#f7f2ff"/>
      <stop offset="0.52" stop-color="#ece5ff"/>
      <stop offset="1" stop-color="#fff9fb"/>
    </linearGradient>
    <linearGradient id="center" x1="145" y1="135" x2="430" y2="280" gradientUnits="userSpaceOnUse">
      <stop offset="0" stop-color="#e5ddff"/>
      <stop offset="1" stop-color="#f8f3ff"/>
    </linearGradient>
  </defs>
  <g filter="url(#shadow)">
    <path fill="url(#fill)" stroke="#d9cff2" stroke-width="6" d="M111 289c-38-4-69-32-69-68 0-39 36-70 80-70 9 0 17 1 25 3 15-32 53-54 97-54 34 0 65 13 84 34 14-7 31-11 49-11 47 0 85 32 85 72 0 2 0 5-.1 7 40 8 70 39 70 76 0 43-40 78-89 78H138c-45 0-82-29-82-64 0-27 23-51 55-60-1 18 1 37 0 57z"/>
    <path fill="url(#center)" opacity="0.9" d="M146 253c-20-2-36-17-36-36 0-22 21-39 46-39 6 0 12 .8 17 2.5 11-17 34-29 61-29 24 0 45 9 58 23 10-5 22-7 35-7 31 0 56 20 56 45 0 2 0 4-.2 6 27 6 47 25 47 49 0 29-29 52-65 52H169c-31 0-56-19-56-43 0-14 9-27 24-35 3 4 6 8 9 11z"/>
    <path fill="#ffffff" opacity="0.48" d="M127 169c25-24 67-32 101-19-36 2-71 15-90 42-4-8-8-15-11-23z"/>
  </g>
</svg>
